# xmcd
#
# Track frame offsets:
#	150
#	10750
#	28015
#	48132
#	67615
#	81942
#	95395
#	119727
#	137295
#	153557
#	167417
#	183227
#
# Disc length: 2529 seconds
#
# Revision: 2
# Processed by: cddbd v1.4PL0 Copyright (c) Steve Scherf et al.
# Submitted via: Gronk 1.4
#
DISCID=8709df0c
DTITLE=Bo Jenkins - Razorback Road
DYEAR=1900
DGENRE=blues
TTITLE0=Arkansas Toothpick (pt2)
TTITLE1=Make's Me Sing The Blues
TTITLE2=A Stand By Your Man, Girl
TTITLE3=Vanda (Stay Yourself)
TTITLE4=Moma's Got A Switch
TTITLE5=The Last One
TTITLE6=Let My Eyes See Arkansas
TTITLE7=One Night With Me
TTITLE8=Nicki
TTITLE9=Since My Woman Done Gone
TTITLE10=Guitar's On My Mind
TTITLE11=Arkansas Toothpick (pt1)
EXTD=Bo Jenkins plays the guitar left handed and with the strings in reverse or
EXTD=der (thickest string to the bottom). This gives him a unique style. Bo is 
EXTD=from Melbourne, Australia.
EXTT0=
EXTT1=
EXTT2=
EXTT3=
EXTT4=
EXTT5=
EXTT6=
EXTT7=
EXTT8=
EXTT9=
EXTT10=
EXTT11=
PLAYORDER=
